<mxfile host="app.diagrams.net" modified="2024-02-27T12:59:49.617Z" agent="Mozilla/5.0 (Windows NT 10.0; Win64; x64) AppleWebKit/537.36 (KHTML, like Gecko) Chrome/121.0.0.0 Safari/537.36" etag="Trqg3MiMA-XDZbWPhQac" version="23.1.7" type="device">
  <diagram name="PÃ¡gina-1" id="M5OF8RxbJ8pJhKZwhB08">
    <mxGraphModel dx="1050" dy="565" grid="1" gridSize="10" guides="1" tooltips="1" connect="1" arrows="1" fold="1" page="1" pageScale="1" pageWidth="827" pageHeight="1169" math="0" shadow="0">
      <root>
        <mxCell id="0" />
        <mxCell id="1" parent="0" />
        <mxCell id="Q-RqPv-9chdznrrgEOd6-1" value="&lt;b style=&quot;font-size: 20px;&quot;&gt;&lt;font style=&quot;font-size: 20px;&quot; color=&quot;#ffffff&quot;&gt;&lt;br style=&quot;font-size: 20px;&quot;&gt;&lt;/font&gt;&lt;font style=&quot;vertical-align: inherit; font-size: 20px;&quot;&gt;&lt;font style=&quot;vertical-align: inherit; font-size: 20px;&quot;&gt;&lt;font style=&quot;vertical-align: inherit; font-size: 20px;&quot;&gt;&lt;font style=&quot;vertical-align: inherit; font-size: 20px;&quot;&gt;Arquitetura de rede com IoT&lt;/font&gt;&lt;/font&gt;&lt;/font&gt;&lt;/font&gt;&lt;/b&gt;&lt;font style=&quot;font-size: 20px;&quot; color=&quot;#ffffff&quot;&gt;&lt;b style=&quot;font-size: 20px;&quot;&gt;&lt;br style=&quot;font-size: 20px;&quot;&gt;&lt;/b&gt;&lt;/font&gt;" style="text;whiteSpace=wrap;html=1;fontSize=20;" vertex="1" parent="1">
          <mxGeometry x="320" y="190" width="280" height="60" as="geometry" />
        </mxCell>
      </root>
    </mxGraphModel>
  </diagram>
</mxfile>
